<svg width="60" height="60" xmlns="http://www.w3.org/2000/svg" fill="#686868"><path d="M59.371 37.07a1.007 1.007 0 00-1.1.24l-4.27 4.489V15.133h.004l4.075-4.4a1 1 0 00-.055-1.413l-.001-.001-1.467-1.365 2.038-2.2a1 1 0 00-.056-1.413l-4.4-4.075a1 1 0 00-1.413.055l-7.11 7.677H11a5.006 5.006 0 00-5-5H5a5.006 5.006 0 00-5 5V51a1 1 0 001 1h15.138l-2.1 2.522a1 1 0 00.129 1.408l4.61 3.84a1 1 0 001.41-.13l5.118-6.149c.354-.426.581-.943.656-1.49h18.324l-6.01 6.31A1 1 0 0039 60h20a1 1 0 001-1V37.998a1 1 0 00-.629-.93zm-3.438-26.972L54 12.19v-1.47l1.2-1.3.733.68zM52 9.92v.014l-8.457 9.14-2.937-2.717 10.188-11.01 2.937 2.717-1.719 1.856H52zm-10.378 10.1l-2.3.671.491-2.346 1.81 1.675zm11.89-17.609l2.935 2.716-1.359 1.47-2.936-2.718 1.36-1.468zM5 4.998h1a3 3 0 013 3v38.027A4.949 4.949 0 006 45H5a4.948 4.948 0 00-3 1.026V7.998a3 3 0 013-3zm0 42h1A3 3 0 019 50H2a3 3 0 013-3zm18.769 5.213l-.64.768-3.074-2.559.64-.769a1 1 0 011.407-.128h.001l1.537 1.276a1 1 0 01.13 1.408l-.001.001v.003zm-4.479 5.38l-3.074-2.559 2.56-3.075 3.073 2.56-2.559 3.074zM25.54 50a2.97 2.97 0 00-.621-.734l-1.537-1.279a3 3 0 00-4.225.386L17.8 50H11V10h32.766l-5.307 5.734a.973.973 0 00-.21.377c-.009.03-.024.06-.031.093l-1.194 5.707a1 1 0 001.259 1.165l5.6-1.632c.026-.009.048-.024.073-.032.025-.01.051-.022.078-.036a.99.99 0 00.3-.21L52 12.878v31.02l-5.81 6.1H25.54zM58 58H41.333L58 40.5v17.5z"/><path d="M47.076 55.382A1 1 0 0048 56h7a1 1 0 001-1v-7a1 1 0 00-1.707-.707l-7 7a1 1 0 00-.217 1.09zM54 50.412V54h-3.586L54 50.413zM44 37.999h-7v-11a1.012 1.012 0 00-.294-.708l-6-6a1 1 0 00-1.414 0l-6 6a1.013 1.013 0 00-.292.708v11h-7a1 1 0 100 2h28a1 1 0 100-2zM30 22.412l3.586 3.586h-7.172L30 22.412zM25 28h10v10H25v-10zM29 15.998h2v2h-2v-2zM29 41.999h2v2h-2v-2z"/></svg>