<svg width="60" height="60" fill="#686868" xmlns="http://www.w3.org/2000/svg"><path d="M53.694 15.937c.62 0 1.249-.144 1.835-.449 1.66-.86 3.927-5.02 4.365-5.845.303-.572-.077-1.29-.722-1.37-.932-.114-5.666-.64-7.326.221a3.928 3.928 0 00-1.952 2.317c-.31.98-.225 2.019.235 2.936l-2.563 2.18v-5.149c1.737-.423 3.029-1.98 3.029-3.832 0-1.86-2.663-5.78-3.197-6.547a.96.96 0 00-1.557 0c-.534.767-3.197 4.688-3.197 6.547 0 1.852 1.293 3.41 3.03 3.832v6.253h-4.102a.943.943 0 00-.947.94v4.748l-9.206-7.03a3.24 3.24 0 00-3.925 0L10.881 28.375a.935.935 0 00-.173 1.317.951.951 0 001.327.172L28.65 17.178a1.334 1.334 0 011.616 0l10.73 8.194c.61.466 1.523.018 1.523-.745V18.91h8.203v13.426c0 .292.137.567.37.745l5.423 4.141c.58.443.688 1.27.243 1.845a1.344 1.344 0 01-1.858.24L30.034 20.321a.952.952 0 00-1.154 0L4.015 39.307a1.344 1.344 0 01-1.859-.24 1.321 1.321 0 01.243-1.845l6.175-4.715a.935.935 0 00.173-1.318.951.951 0 00-1.327-.172l-6.175 4.716c-1.39 1.06-1.66 3.098-.589 4.48a3.238 3.238 0 004.513.584L29.457 22.25l24.287 18.546c1.393 1.063 3.443.796 4.513-.585a3.183 3.183 0 00-.589-4.48l-5.054-3.859V17.97a.943.943 0 00-.946-.94h-2.49l2.174-1.849a4.02 4.02 0 002.342.756zm-1.993-4.564c.166-.527.53-.958 1.022-1.214.362-.187 1.256-.268 2.354-.268.757 0 1.611.039 2.455.106-1.043 1.777-2.268 3.508-2.88 3.826a2.092 2.092 0 01-1.783.067l1.434-1.22a.935.935 0 00.103-1.325.951.951 0 00-1.335-.102l-1.413 1.203c-.08-.352-.069-.72.043-1.073zM46.62 6.006a.943.943 0 00-.947.94v1.839a2.066 2.066 0 01-1.135-1.84c0-.684.978-2.563 2.082-4.305 1.104 1.741 2.082 3.62 2.082 4.306 0 .801-.462 1.496-1.136 1.839v-1.84a.943.943 0 00-.946-.939z"/><path d="M29.457 32.064c-7.76 0-14.072 6.266-14.072 13.968S21.698 60 29.457 60c7.758 0 14.071-6.266 14.071-13.968s-6.313-13.968-14.071-13.968zm0 1.879c2.76 0 5.308.916 7.353 2.459l-3.984 3.955a.936.936 0 00-.278.664v2.89l-.36 1.433-.875-1.737a.942.942 0 00-.322-.361l-2.759-1.826-.906-2.7a.943.943 0 00-.6-.595l-2.696-.892-.917-1.517a12.171 12.171 0 016.343-1.773zM17.277 46.032c0-.547.038-1.084.109-1.612l.642-.255 2.593 3.433c.14.185.344.312.572.357l4.767.947 2.413 2.395-.737 2.192-3.987 3.167c-3.793-2.05-6.372-6.044-6.372-10.624zM29.457 58.12c-1.343 0-2.635-.218-3.844-.618l3.425-2.72a.94.94 0 00.307-.437l1.01-3.006a.935.935 0 00-.23-.962l-3.028-3.006a.947.947 0 00-.484-.257l-4.693-.932-2.812-3.721a.95.95 0 00-1.109-.31l-.09.037a12.126 12.126 0 013.666-5.365l1.012 1.674a.946.946 0 00.512.408l2.58.853.86 2.561a.939.939 0 00.373.485l2.82 1.866 1.907 3.785a.957.957 0 00.967.512.952.952 0 00.797-.704l1.01-4.009a.941.941 0 00.028-.227V41.41l3.785-3.757a12.078 12.078 0 012.895 4.904l-2.764.55a.943.943 0 00-.742.736l-1.01 5.011a.935.935 0 00.14.706l2.02 3.006a.8.8 0 00.03.043l.454.6a12.196 12.196 0 01-9.792 4.912zm9.081-9.28l.81-4.015 2.175-.432c.073.536.112 1.083.112 1.638 0 1.964-.475 3.82-1.316 5.461l-1.78-2.652z"/></svg>