<svg width="60" height="60" fill="#686868" xmlns="http://www.w3.org/2000/svg"><path d="M54.456 49.157a5.47 5.47 0 00-7.873-2.314 5.497 5.497 0 00-3.93-1.841 5.992 5.992 0 00-8.078-3.49c-.034-.055-.077-.103-.113-.158A19.136 19.136 0 0038 30.36v-.58A2.768 2.768 0 0035.25 27H33V6.188A5.999 5.999 0 0036 1a1 1 0 00-1-1H25a1 1 0 00-1 1 5.999 5.999 0 003 5.188V27h-2.25A2.768 2.768 0 0022 29.78v.58c.005 2.46.493 4.894 1.437 7.165a9.44 9.44 0 00-5.359 4.584 5.885 5.885 0 00-6.276 2.903 4.428 4.428 0 00-4.53 2.992A7.51 7.51 0 000 55.5V59a1 1 0 001 1h58a1 1 0 001-1v-3a7.005 7.005 0 00-5.544-6.843zM26.126 2h7.747a4 4 0 01-7.746 0zM29 26.997V6.91A6 6 0 0030 7c.335-.002.67-.032 1-.09v20.087h-2zM31 29v3a1 1 0 11-2 0v-3h2zm-7 .78a.757.757 0 01.75-.78H27v3a3 3 0 006 0v-3h2.25a.757.757 0 01.75.78v.58a17.091 17.091 0 01-2.852 9.382 9.216 9.216 0 00-7.737-2.667l-.07-.154A16.78 16.78 0 0124 30.36v-.58zM58 58H2v-2.5A5.506 5.506 0 017.5 50c.157 0 .311.012.464.024a1.001 1.001 0 001.075-.861 2.438 2.438 0 013.083-2.072 1 1 0 001.176-.592A3.982 3.982 0 0117 44c.444.006.884.087 1.302.24a1 1 0 001.254-.568 7.492 7.492 0 0113.72-.37 1 1 0 001.47.397 3.99 3.99 0 016.177 2.548c.1.52.59.873 1.116.804l.11-.016A2.53 2.53 0 0142.5 47c1.25-.001 2.405.674 3.017 1.764a1 1 0 001.56.22 3.473 3.473 0 015.717 1.39 1 1 0 00.824.669A5 5 0 0158 56v2z"/><path d="M29.433 43.994a1 1 0 00.524-1.772 5.501 5.501 0 00-8.644 2.445 1 1 0 101.886.667A3.507 3.507 0 0126.5 43a3.46 3.46 0 012.2.777 1 1 0 00.733.217zM42 49c-.527 0-1.044.138-1.5.401a1 1 0 101 1.733A1 1 0 0143 52a1 1 0 102 0 3.003 3.003 0 00-3-3zM53 53c-.527 0-1.044.139-1.5.402a1 1 0 101 1.731A1 1 0 0154 56a1 1 0 102 0 3.003 3.003 0 00-3-3zM14.198 49.07a3.502 3.502 0 00-4.128 4.128 1 1 0 101.96-.396 1.502 1.502 0 011.772-1.772 1 1 0 10.396-1.96zM29.5 48c-.624 0-1.244.105-1.833.313a1 1 0 00.665 1.886 3.504 3.504 0 014.469 4.468 1 1 0 101.886.666A5.503 5.503 0 0029.5 48z"/></svg>