<svg width="83" height="60" fill="#686868" xmlns="http://www.w3.org/2000/svg"><path d="M81.656 57.313H72.96V45.55c3.264-.598 5.737-3.327 5.737-6.594 0-1.653-.662-5.77-1.731-9.538-1.534-5.407-3.234-7.925-5.35-7.925-2.117 0-3.816 2.518-5.35 7.924-1.07 3.77-1.731 7.886-1.731 9.54 0 3.267 2.473 5.995 5.736 6.593v11.764h-8.784V23.958a4.216 4.216 0 002.868-3.988V14.24c0-.742-.601-1.344-1.344-1.344h-1.524v-1.611h2.958a1.344 1.344 0 100-2.687h-8.605a1.344 1.344 0 100 2.687H58.8v1.611h-1.524c-.742 0-1.344.602-1.344 1.344v5.731a4.216 4.216 0 002.868 3.988v33.355h-4.7l-.914-4.477h1.222a1.344 1.344 0 100-2.687h-2.958v-3.044h1.524a1.344 1.344 0 100-2.687h-1.524v-1.612h1.524a1.344 1.344 0 100-2.687H27.159a1.344 1.344 0 100 2.687h1.524v1.612h-1.524a1.344 1.344 0 100 2.687h1.524v3.044h-2.958a1.344 1.344 0 100 2.687h1.222l-.914 4.477H15.596V44.157c5.645-.667 10.039-5.475 10.039-11.291 0-10.091-9.749-31.195-10.164-32.088a1.344 1.344 0 00-2.439 0c-.415.893-10.164 21.997-10.164 32.088 0 5.816 4.394 10.624 10.04 11.29v13.157H1.343a1.344 1.344 0 100 2.687h80.312a1.344 1.344 0 100-2.687zM67.225 38.955c0-1.198.526-4.782 1.515-8.396 1.438-5.258 2.646-6.223 2.877-6.363.23.14 1.438 1.105 2.876 6.363.99 3.614 1.516 7.198 1.516 8.396 0 1.792-1.282 3.314-3.048 3.836V40.03a1.344 1.344 0 00-2.689 0v2.761c-1.766-.522-3.047-2.044-3.047-3.836zM58.62 15.582h3.047v4.388a1.525 1.525 0 01-3.047 0v-4.388zM5.557 32.866c0-7.456 6.045-22.143 8.695-28.223 2.65 6.08 8.694 20.767 8.694 28.223 0 4.333-3.192 7.934-7.35 8.582v-8.026l3.909-3.905a1.342 1.342 0 000-1.9 1.345 1.345 0 00-1.902 0l-2.007 2.006v-2.489a1.344 1.344 0 00-2.689 0v6.787L10.9 31.916a1.345 1.345 0 00-1.901 0 1.342 1.342 0 000 1.9l3.908 3.905v3.727c-4.158-.648-7.35-4.25-7.35-8.582zm25.815 9.94H48.76v1.612H31.372v-1.612zm0 4.299H48.76v3.044H31.372v-3.044zm-1.681 5.73h20.75l.913 4.478H28.778l.913-4.477z"/></svg>